<!--?xml version="1.0" encoding="UTF-8"?-->
<svg width="64" height="64" viewBox="0 0 64 64" fill="none" xmlns="http://www.w3.org/2000/svg" role="img" aria-label="Hincha Store ball">
  <title>Hincha Store — Ball</title>
  <!-- Borde y fondo del balón -->
  <circle cx="32" cy="32" r="30" fill="#fff" stroke="currentColor" stroke-width="2"></circle>

  <!-- Pentágono central -->
  <path d="M32 22 L39 26 L36 34 L28 34 L25 26 Z" fill="currentColor" stroke="currentColor" stroke-width="1.5" stroke-linejoin="round"></path>

  <!-- Costuras (líneas) hacia los paneles exteriores -->
  <path d="M32 22 L32 10" stroke="currentColor" stroke-width="1.5" stroke-linecap="round"></path>
  <path d="M39 26 L49 20" stroke="currentColor" stroke-width="1.5" stroke-linecap="round"></path>
  <path d="M36 34 L46 38" stroke="currentColor" stroke-width="1.5" stroke-linecap="round"></path>
  <path d="M28 34 L18 38" stroke="currentColor" stroke-width="1.5" stroke-linecap="round"></path>
  <path d="M25 26 L15 20" stroke="currentColor" stroke-width="1.5" stroke-linecap="round"></path>

  <!-- Parches exteriores (formas sutiles) -->
  <path d="M30 9 C35 8 41 9 45 12 C43 14 40 16 37 18" stroke="currentColor" stroke-width="1" stroke-linecap="round" opacity="0.6"></path>
  <path d="M50 19 C53 24 55 29 54 34 C51 34 48 36 46 38" stroke="currentColor" stroke-width="1" stroke-linecap="round" opacity="0.6"></path>
  <path d="M14 19 C11 24 9 29 10 34 C13 34 16 36 18 38" stroke="currentColor" stroke-width="1" stroke-linecap="round" opacity="0.6"></path>
  <path d="M30 55 C35 56 41 55 45 52 C43 50 40 48 37 46" stroke="currentColor" stroke-width="1" stroke-linecap="round" opacity="0.6"></path>

  <!-- Leve sombreado interno -->
  <ellipse cx="32" cy="37" rx="16" ry="8" fill="currentColor" opacity="0.06"></ellipse>
</svg>
